<?xml version="1.0" encoding="utf-8" standalone="no"?>
<!DOCTYPE svg PUBLIC "-//W3C//DTD SVG 1.1//EN"
  "http://www.w3.org/Graphics/SVG/1.1/DTD/svg11.dtd">
<!-- Created with matplotlib (https://matplotlib.org/) -->
<svg height="486pt" version="1.1" viewBox="0 0 979.2 486" width="979.2pt" xmlns="http://www.w3.org/2000/svg" xmlns:xlink="http://www.w3.org/1999/xlink">
 <metadata>
  <rdf:RDF xmlns:cc="http://creativecommons.org/ns#" xmlns:dc="http://purl.org/dc/elements/1.1/" xmlns:rdf="http://www.w3.org/1999/02/22-rdf-syntax-ns#">
   <cc:Work>
    <dc:type rdf:resource="http://purl.org/dc/dcmitype/StillImage"/>
    <dc:date>2021-07-23T02:09:37.655194</dc:date>
    <dc:format>image/svg+xml</dc:format>
    <dc:creator>
     <cc:Agent>
      <dc:title>Matplotlib v3.3.3, https://matplotlib.org/</dc:title>
     </cc:Agent>
    </dc:creator>
   </cc:Work>
  </rdf:RDF>
 </metadata>
 <defs>
  <style type="text/css">*{stroke-linecap:butt;stroke-linejoin:round;}</style>
 </defs>
 <g id="figure_1">
  <g id="patch_1">
   <path d="M 0 486 
L 979.2 486 
L 979.2 0 
L 0 0 
z
" style="fill:#ffffff;"/>
  </g>
  <g id="axes_1">
   <g id="patch_2">
    <path d="M 688.95 245.43 
C 688.95 220.85894 684.110037 196.526802 674.707099 173.826103 
C 665.304162 151.125403 651.521113 130.497613 634.14675 113.12325 
C 616.772387 95.748887 596.144597 81.965838 573.443897 72.562901 
C 550.743198 63.159963 526.41106 58.32 501.84 58.32 
C 477.26894 58.32 452.936802 63.159963 430.236103 72.562901 
C 407.535403 81.965838 386.907613 95.748887 369.53325 113.12325 
C 352.158887 130.497613 338.375838 151.125403 328.972901 173.826103 
C 319.569963 196.526802 314.73 220.85894 314.73 245.43 
C 314.73 270.00106 319.569963 294.333198 328.972901 317.033897 
C 338.375838 339.734597 352.158887 360.362387 369.53325 377.73675 
C 386.907613 395.111113 407.535403 408.894162 430.236103 418.297099 
C 452.936802 427.700037 477.26894 432.54 501.84 432.54 
C 526.41106 432.54 550.743198 427.700037 573.443897 418.297099 
C 596.144597 408.894162 616.772387 395.111113 634.14675 377.73675 
C 651.521113 360.362387 665.304162 339.734597 674.707099 317.033897 
C 684.110037 294.333198 688.95 270.00106 688.95 245.43 
M 501.84 245.43 
C 501.84 245.43 501.84 245.43 501.84 245.43 
C 501.84 245.43 501.84 245.43 501.84 245.43 
C 501.84 245.43 501.84 245.43 501.84 245.43 
C 501.84 245.43 501.84 245.43 501.84 245.43 
C 501.84 245.43 501.84 245.43 501.84 245.43 
C 501.84 245.43 501.84 245.43 501.84 245.43 
C 501.84 245.43 501.84 245.43 501.84 245.43 
C 501.84 245.43 501.84 245.43 501.84 245.43 
C 501.84 245.43 501.84 245.43 501.84 245.43 
C 501.84 245.43 501.84 245.43 501.84 245.43 
C 501.84 245.43 501.84 245.43 501.84 245.43 
C 501.84 245.43 501.84 245.43 501.84 245.43 
C 501.84 245.43 501.84 245.43 501.84 245.43 
C 501.84 245.43 501.84 245.43 501.84 245.43 
C 501.84 245.43 501.84 245.43 501.84 245.43 
C 501.84 245.43 501.84 245.43 501.84 245.43 
M 688.95 245.43 
z
" style="fill:#ffffff;"/>
   </g>
   <g id="matplotlib.axis_1">
    <g id="xtick_1">
     <g id="line2d_1">
      <path clip-path="url(#padf773c143)" d="M 501.84 245.43 
L 688.95 245.43 
" style="fill:none;stroke:#b0b0b0;stroke-linecap:square;stroke-width:0.8;"/>
     </g>
     <g id="text_1">
      <!-- 0° -->
      <g transform="translate(697.26875 248.189375)scale(0.1 -0.1)">
       <defs>
        <path d="M 31.78125 66.40625 
Q 24.171875 66.40625 20.328125 58.90625 
Q 16.5 51.421875 16.5 36.375 
Q 16.5 21.390625 20.328125 13.890625 
Q 24.171875 6.390625 31.78125 6.390625 
Q 39.453125 6.390625 43.28125 13.890625 
Q 47.125 21.390625 47.125 36.375 
Q 47.125 51.421875 43.28125 58.90625 
Q 39.453125 66.40625 31.78125 66.40625 
z
M 31.78125 74.21875 
Q 44.046875 74.21875 50.515625 64.515625 
Q 56.984375 54.828125 56.984375 36.375 
Q 56.984375 17.96875 50.515625 8.265625 
Q 44.046875 -1.421875 31.78125 -1.421875 
Q 19.53125 -1.421875 13.0625 8.265625 
Q 6.59375 17.96875 6.59375 36.375 
Q 6.59375 54.828125 13.0625 64.515625 
Q 19.53125 74.21875 31.78125 74.21875 
z
" id="DejaVuSans-48"/>
        <path d="M 25 67.921875 
Q 21.09375 67.921875 18.40625 65.203125 
Q 15.71875 62.5 15.71875 58.59375 
Q 15.71875 54.734375 18.40625 52.078125 
Q 21.09375 49.421875 25 49.421875 
Q 28.90625 49.421875 31.59375 52.078125 
Q 34.28125 54.734375 34.28125 58.59375 
Q 34.28125 62.453125 31.5625 65.1875 
Q 28.859375 67.921875 25 67.921875 
z
M 25 74.21875 
Q 28.125 74.21875 31 73.015625 
Q 33.890625 71.828125 35.984375 69.578125 
Q 38.234375 67.390625 39.359375 64.59375 
Q 40.484375 61.8125 40.484375 58.59375 
Q 40.484375 52.15625 35.96875 47.6875 
Q 31.453125 43.21875 24.90625 43.21875 
Q 18.3125 43.21875 13.90625 47.609375 
Q 9.515625 52 9.515625 58.59375 
Q 9.515625 65.140625 14 69.671875 
Q 18.5 74.21875 25 74.21875 
z
" id="DejaVuSans-176"/>
       </defs>
       <use xlink:href="#DejaVuSans-48"/>
       <use x="63.623047" xlink:href="#DejaVuSans-176"/>
      </g>
     </g>
    </g>
    <g id="xtick_2">
     <g id="line2d_2">
      <path clip-path="url(#padf773c143)" d="M 501.84 245.43 
L 634.14675 113.12325 
" style="fill:none;stroke:#b0b0b0;stroke-linecap:square;stroke-width:0.8;"/>
     </g>
     <g id="text_2">
      <!-- 45° -->
      <g transform="translate(635.183745 105.98313)scale(0.1 -0.1)">
       <defs>
        <path d="M 37.796875 64.3125 
L 12.890625 25.390625 
L 37.796875 25.390625 
z
M 35.203125 72.90625 
L 47.609375 72.90625 
L 47.609375 25.390625 
L 58.015625 25.390625 
L 58.015625 17.1875 
L 47.609375 17.1875 
L 47.609375 0 
L 37.796875 0 
L 37.796875 17.1875 
L 4.890625 17.1875 
L 4.890625 26.703125 
z
" id="DejaVuSans-52"/>
        <path d="M 10.796875 72.90625 
L 49.515625 72.90625 
L 49.515625 64.59375 
L 19.828125 64.59375 
L 19.828125 46.734375 
Q 21.96875 47.46875 24.109375 47.828125 
Q 26.265625 48.1875 28.421875 48.1875 
Q 40.625 48.1875 47.75 41.5 
Q 54.890625 34.8125 54.890625 23.390625 
Q 54.890625 11.625 47.5625 5.09375 
Q 40.234375 -1.421875 26.90625 -1.421875 
Q 22.3125 -1.421875 17.546875 -0.640625 
Q 12.796875 0.140625 7.71875 1.703125 
L 7.71875 11.625 
Q 12.109375 9.234375 16.796875 8.0625 
Q 21.484375 6.890625 26.703125 6.890625 
Q 35.15625 6.890625 40.078125 11.328125 
Q 45.015625 15.765625 45.015625 23.390625 
Q 45.015625 31 40.078125 35.4375 
Q 35.15625 39.890625 26.703125 39.890625 
Q 22.75 39.890625 18.8125 39.015625 
Q 14.890625 38.140625 10.796875 36.28125 
z
" id="DejaVuSans-53"/>
       </defs>
       <use xlink:href="#DejaVuSans-52"/>
       <use x="63.623047" xlink:href="#DejaVuSans-53"/>
       <use x="127.246094" xlink:href="#DejaVuSans-176"/>
      </g>
     </g>
    </g>
    <g id="xtick_3">
     <g id="line2d_3">
      <path clip-path="url(#padf773c143)" d="M 501.84 245.43 
L 501.84 58.32 
" style="fill:none;stroke:#b0b0b0;stroke-linecap:square;stroke-width:0.8;"/>
     </g>
     <g id="text_3">
      <!-- 90° -->
      <g transform="translate(492.9775 47.079375)scale(0.1 -0.1)">
       <defs>
        <path d="M 10.984375 1.515625 
L 10.984375 10.5 
Q 14.703125 8.734375 18.5 7.8125 
Q 22.3125 6.890625 25.984375 6.890625 
Q 35.75 6.890625 40.890625 13.453125 
Q 46.046875 20.015625 46.78125 33.40625 
Q 43.953125 29.203125 39.59375 26.953125 
Q 35.25 24.703125 29.984375 24.703125 
Q 19.046875 24.703125 12.671875 31.3125 
Q 6.296875 37.9375 6.296875 49.421875 
Q 6.296875 60.640625 12.9375 67.421875 
Q 19.578125 74.21875 30.609375 74.21875 
Q 43.265625 74.21875 49.921875 64.515625 
Q 56.59375 54.828125 56.59375 36.375 
Q 56.59375 19.140625 48.40625 8.859375 
Q 40.234375 -1.421875 26.421875 -1.421875 
Q 22.703125 -1.421875 18.890625 -0.6875 
Q 15.09375 0.046875 10.984375 1.515625 
z
M 30.609375 32.421875 
Q 37.25 32.421875 41.125 36.953125 
Q 45.015625 41.5 45.015625 49.421875 
Q 45.015625 57.28125 41.125 61.84375 
Q 37.25 66.40625 30.609375 66.40625 
Q 23.96875 66.40625 20.09375 61.84375 
Q 16.21875 57.28125 16.21875 49.421875 
Q 16.21875 41.5 20.09375 36.953125 
Q 23.96875 32.421875 30.609375 32.421875 
z
" id="DejaVuSans-57"/>
       </defs>
       <use xlink:href="#DejaVuSans-57"/>
       <use x="63.623047" xlink:href="#DejaVuSans-48"/>
       <use x="127.246094" xlink:href="#DejaVuSans-176"/>
      </g>
     </g>
    </g>
    <g id="xtick_4">
     <g id="line2d_4">
      <path clip-path="url(#padf773c143)" d="M 501.84 245.43 
L 369.53325 113.12325 
" style="fill:none;stroke:#b0b0b0;stroke-linecap:square;stroke-width:0.8;"/>
     </g>
     <g id="text_4">
      <!-- 135° -->
      <g transform="translate(347.590005 105.98313)scale(0.1 -0.1)">
       <defs>
        <path d="M 12.40625 8.296875 
L 28.515625 8.296875 
L 28.515625 63.921875 
L 10.984375 60.40625 
L 10.984375 69.390625 
L 28.421875 72.90625 
L 38.28125 72.90625 
L 38.28125 8.296875 
L 54.390625 8.296875 
L 54.390625 0 
L 12.40625 0 
z
" id="DejaVuSans-49"/>
        <path d="M 40.578125 39.3125 
Q 47.65625 37.796875 51.625 33 
Q 55.609375 28.21875 55.609375 21.1875 
Q 55.609375 10.40625 48.1875 4.484375 
Q 40.765625 -1.421875 27.09375 -1.421875 
Q 22.515625 -1.421875 17.65625 -0.515625 
Q 12.796875 0.390625 7.625 2.203125 
L 7.625 11.71875 
Q 11.71875 9.328125 16.59375 8.109375 
Q 21.484375 6.890625 26.8125 6.890625 
Q 36.078125 6.890625 40.9375 10.546875 
Q 45.796875 14.203125 45.796875 21.1875 
Q 45.796875 27.640625 41.28125 31.265625 
Q 36.765625 34.90625 28.71875 34.90625 
L 20.21875 34.90625 
L 20.21875 43.015625 
L 29.109375 43.015625 
Q 36.375 43.015625 40.234375 45.921875 
Q 44.09375 48.828125 44.09375 54.296875 
Q 44.09375 59.90625 40.109375 62.90625 
Q 36.140625 65.921875 28.71875 65.921875 
Q 24.65625 65.921875 20.015625 65.03125 
Q 15.375 64.15625 9.8125 62.3125 
L 9.8125 71.09375 
Q 15.4375 72.65625 20.34375 73.4375 
Q 25.25 74.21875 29.59375 74.21875 
Q 40.828125 74.21875 47.359375 69.109375 
Q 53.90625 64.015625 53.90625 55.328125 
Q 53.90625 49.265625 50.4375 45.09375 
Q 46.96875 40.921875 40.578125 39.3125 
z
" id="DejaVuSans-51"/>
       </defs>
       <use xlink:href="#DejaVuSans-49"/>
       <use x="63.623047" xlink:href="#DejaVuSans-51"/>
       <use x="127.246094" xlink:href="#DejaVuSans-53"/>
       <use x="190.869141" xlink:href="#DejaVuSans-176"/>
      </g>
     </g>
    </g>
    <g id="xtick_5">
     <g id="line2d_5">
      <path clip-path="url(#padf773c143)" d="M 501.84 245.43 
L 314.73 245.43 
" style="fill:none;stroke:#b0b0b0;stroke-linecap:square;stroke-width:0.8;"/>
     </g>
     <g id="text_5">
      <!-- 180° -->
      <g transform="translate(288.68625 248.189375)scale(0.1 -0.1)">
       <defs>
        <path d="M 31.78125 34.625 
Q 24.75 34.625 20.71875 30.859375 
Q 16.703125 27.09375 16.703125 20.515625 
Q 16.703125 13.921875 20.71875 10.15625 
Q 24.75 6.390625 31.78125 6.390625 
Q 38.8125 6.390625 42.859375 10.171875 
Q 46.921875 13.96875 46.921875 20.515625 
Q 46.921875 27.09375 42.890625 30.859375 
Q 38.875 34.625 31.78125 34.625 
z
M 21.921875 38.8125 
Q 15.578125 40.375 12.03125 44.71875 
Q 8.5 49.078125 8.5 55.328125 
Q 8.5 64.0625 14.71875 69.140625 
Q 20.953125 74.21875 31.78125 74.21875 
Q 42.671875 74.21875 48.875 69.140625 
Q 55.078125 64.0625 55.078125 55.328125 
Q 55.078125 49.078125 51.53125 44.71875 
Q 48 40.375 41.703125 38.8125 
Q 48.828125 37.15625 52.796875 32.3125 
Q 56.78125 27.484375 56.78125 20.515625 
Q 56.78125 9.90625 50.3125 4.234375 
Q 43.84375 -1.421875 31.78125 -1.421875 
Q 19.734375 -1.421875 13.25 4.234375 
Q 6.78125 9.90625 6.78125 20.515625 
Q 6.78125 27.484375 10.78125 32.3125 
Q 14.796875 37.15625 21.921875 38.8125 
z
M 18.3125 54.390625 
Q 18.3125 48.734375 21.84375 45.5625 
Q 25.390625 42.390625 31.78125 42.390625 
Q 38.140625 42.390625 41.71875 45.5625 
Q 45.3125 48.734375 45.3125 54.390625 
Q 45.3125 60.0625 41.71875 63.234375 
Q 38.140625 66.40625 31.78125 66.40625 
Q 25.390625 66.40625 21.84375 63.234375 
Q 18.3125 60.0625 18.3125 54.390625 
z
" id="DejaVuSans-56"/>
       </defs>
       <use xlink:href="#DejaVuSans-49"/>
       <use x="63.623047" xlink:href="#DejaVuSans-56"/>
       <use x="127.246094" xlink:href="#DejaVuSans-48"/>
       <use x="190.869141" xlink:href="#DejaVuSans-176"/>
      </g>
     </g>
    </g>
    <g id="xtick_6">
     <g id="line2d_6">
      <path clip-path="url(#padf773c143)" d="M 501.84 245.43 
L 369.53325 377.73675 
" style="fill:none;stroke:#b0b0b0;stroke-linecap:square;stroke-width:0.8;"/>
     </g>
     <g id="text_6">
      <!-- 225° -->
      <g transform="translate(347.590005 390.39562)scale(0.1 -0.1)">
       <defs>
        <path d="M 19.1875 8.296875 
L 53.609375 8.296875 
L 53.609375 0 
L 7.328125 0 
L 7.328125 8.296875 
Q 12.9375 14.109375 22.625 23.890625 
Q 32.328125 33.6875 34.8125 36.53125 
Q 39.546875 41.84375 41.421875 45.53125 
Q 43.3125 49.21875 43.3125 52.78125 
Q 43.3125 58.59375 39.234375 62.25 
Q 35.15625 65.921875 28.609375 65.921875 
Q 23.96875 65.921875 18.8125 64.3125 
Q 13.671875 62.703125 7.8125 59.421875 
L 7.8125 69.390625 
Q 13.765625 71.78125 18.9375 73 
Q 24.125 74.21875 28.421875 74.21875 
Q 39.75 74.21875 46.484375 68.546875 
Q 53.21875 62.890625 53.21875 53.421875 
Q 53.21875 48.921875 51.53125 44.890625 
Q 49.859375 40.875 45.40625 35.40625 
Q 44.1875 33.984375 37.640625 27.21875 
Q 31.109375 20.453125 19.1875 8.296875 
z
" id="DejaVuSans-50"/>
       </defs>
       <use xlink:href="#DejaVuSans-50"/>
       <use x="63.623047" xlink:href="#DejaVuSans-50"/>
       <use x="127.246094" xlink:href="#DejaVuSans-53"/>
       <use x="190.869141" xlink:href="#DejaVuSans-176"/>
      </g>
     </g>
    </g>
    <g id="xtick_7">
     <g id="line2d_7">
      <path clip-path="url(#padf773c143)" d="M 501.84 245.43 
L 501.84 432.54 
" style="fill:none;stroke:#b0b0b0;stroke-linecap:square;stroke-width:0.8;"/>
     </g>
     <g id="text_7">
      <!-- 270° -->
      <g transform="translate(489.79625 449.299375)scale(0.1 -0.1)">
       <defs>
        <path d="M 8.203125 72.90625 
L 55.078125 72.90625 
L 55.078125 68.703125 
L 28.609375 0 
L 18.3125 0 
L 43.21875 64.59375 
L 8.203125 64.59375 
z
" id="DejaVuSans-55"/>
       </defs>
       <use xlink:href="#DejaVuSans-50"/>
       <use x="63.623047" xlink:href="#DejaVuSans-55"/>
       <use x="127.246094" xlink:href="#DejaVuSans-48"/>
       <use x="190.869141" xlink:href="#DejaVuSans-176"/>
      </g>
     </g>
    </g>
    <g id="xtick_8">
     <g id="line2d_8">
      <path clip-path="url(#padf773c143)" d="M 501.84 245.43 
L 634.14675 377.73675 
" style="fill:none;stroke:#b0b0b0;stroke-linecap:square;stroke-width:0.8;"/>
     </g>
     <g id="text_8">
      <!-- 315° -->
      <g transform="translate(632.002495 390.39562)scale(0.1 -0.1)">
       <use xlink:href="#DejaVuSans-51"/>
       <use x="63.623047" xlink:href="#DejaVuSans-49"/>
       <use x="127.246094" xlink:href="#DejaVuSans-53"/>
       <use x="190.869141" xlink:href="#DejaVuSans-176"/>
      </g>
     </g>
    </g>
   </g>
   <g id="matplotlib.axis_2"/>
   <g id="line2d_9">
    <defs>
     <path d="M 0 3 
C 0.795609 3 1.55874 2.683901 2.12132 2.12132 
C 2.683901 1.55874 3 0.795609 3 0 
C 3 -0.795609 2.683901 -1.55874 2.12132 -2.12132 
C 1.55874 -2.683901 0.795609 -3 0 -3 
C -0.795609 -3 -1.55874 -2.683901 -2.12132 -2.12132 
C -2.683901 -1.55874 -3 -0.795609 -3 0 
C -3 0.795609 -2.683901 1.55874 -2.12132 2.12132 
C -1.55874 2.683901 -0.795609 3 0 3 
z
" id="m02361c8a0d" style="stroke:#e4717a;"/>
    </defs>
    <g clip-path="url(#padf773c143)">
     <use style="fill:#e4717a;stroke:#e4717a;" x="501.84" xlink:href="#m02361c8a0d" y="245.43"/>
     <use style="fill:#e4717a;stroke:#e4717a;" x="519.660089" xlink:href="#m02361c8a0d" y="245.43"/>
     <use style="fill:#e4717a;stroke:#e4717a;" x="480.211741" xlink:href="#m02361c8a0d" y="232.494408"/>
     <use style="fill:#e4717a;stroke:#e4717a;" x="498.366444" xlink:href="#m02361c8a0d" y="276.099221"/>
     <use style="fill:#e4717a;stroke:#e4717a;" x="537.480178" xlink:href="#m02361c8a0d" y="245.43"/>
     <use style="fill:#e4717a;stroke:#e4717a;" x="505.323647" xlink:href="#m02361c8a0d" y="205.735642"/>
     <use style="fill:#e4717a;stroke:#e4717a;" x="460.369722" xlink:href="#m02361c8a0d" y="231.808344"/>
     <use style="fill:#e4717a;stroke:#e4717a;" x="473.119133" xlink:href="#m02361c8a0d" y="282.819849"/>
     <use style="fill:#e4717a;stroke:#e4717a;" x="525.684066" xlink:href="#m02361c8a0d" y="289.836138"/>
     <use style="fill:#e4717a;stroke:#e4717a;" x="555.300267" xlink:href="#m02361c8a0d" y="245.43"/>
     <use style="fill:#e4717a;stroke:#e4717a;" x="531.35097" xlink:href="#m02361c8a0d" y="197.423142"/>
     <use style="fill:#e4717a;stroke:#e4717a;" x="477.815035" xlink:href="#m02361c8a0d" y="191.430811"/>
     <use style="fill:#e4717a;stroke:#e4717a;" x="441.673045" xlink:href="#m02361c8a0d" y="231.624043"/>
     <use style="fill:#e4717a;stroke:#e4717a;" x="451.208264" xlink:href="#m02361c8a0d" y="284.985655"/>
     <use style="fill:#e4717a;stroke:#e4717a;" x="498.34653" xlink:href="#m02361c8a0d" y="312.015086"/>
     <use style="fill:#e4717a;stroke:#e4717a;" x="550.020048" xlink:href="#m02361c8a0d" y="294.846764"/>
     <use style="fill:#e4717a;stroke:#e4717a;" x="573.120356" xlink:href="#m02361c8a0d" y="245.43"/>
     <use style="fill:#e4717a;stroke:#e4717a;" x="554.40874" xlink:href="#m02361c8a0d" y="194.098018"/>
     <use style="fill:#e4717a;stroke:#e4717a;" x="505.334689" xlink:href="#m02361c8a0d" y="169.906576"/>
     <use style="fill:#e4717a;stroke:#e4717a;" x="452.74271" xlink:href="#m02361c8a0d" y="185.238539"/>
     <use style="fill:#e4717a;stroke:#e4717a;" x="423.36438" xlink:href="#m02361c8a0d" y="231.548768"/>
     <use style="fill:#e4717a;stroke:#e4717a;" x="430.925145" xlink:href="#m02361c8a0d" y="285.923832"/>
     <use style="fill:#e4717a;stroke:#e4717a;" x="471.273932" xlink:href="#m02361c8a0d" y="323.224204"/>
     <use style="fill:#e4717a;stroke:#e4717a;" x="526.111629" xlink:href="#m02361c8a0d" y="327.373067"/>
     <use style="fill:#e4717a;stroke:#e4717a;" x="572.136909" xlink:href="#m02361c8a0d" y="297.195611"/>
     <use style="fill:#e4717a;stroke:#e4717a;" x="590.940446" xlink:href="#m02361c8a0d" y="245.43"/>
     <use style="fill:#e4717a;stroke:#e4717a;" x="575.678949" xlink:href="#m02361c8a0d" y="192.474786"/>
     <use style="fill:#e4717a;stroke:#e4717a;" x="532.574087" xlink:href="#m02361c8a0d" y="158.083469"/>
     <use style="fill:#e4717a;stroke:#e4717a;" x="477.528539" xlink:href="#m02361c8a0d" y="154.322871"/>
     <use style="fill:#e4717a;stroke:#e4717a;" x="429.790576" xlink:href="#m02361c8a0d" y="182.042365"/>
     <use style="fill:#e4717a;stroke:#e4717a;" x="405.232946" xlink:href="#m02361c8a0d" y="231.510788"/>
     <use style="fill:#e4717a;stroke:#e4717a;" x="411.480282" xlink:href="#m02361c8a0d" y="286.409803"/>
     <use style="fill:#e4717a;stroke:#e4717a;" x="446.154006" xlink:href="#m02361c8a0d" y="329.458855"/>
     <use style="fill:#e4717a;stroke:#e4717a;" x="498.343369" xlink:href="#m02361c8a0d" y="347.738883"/>
     <use style="fill:#e4717a;stroke:#e4717a;" x="552.441798" xlink:href="#m02361c8a0d" y="336.184326"/>
     <use style="fill:#e4717a;stroke:#e4717a;" x="592.94579" xlink:href="#m02361c8a0d" y="298.478847"/>
     <use style="fill:#e4717a;stroke:#e4717a;" x="608.760535" xlink:href="#m02361c8a0d" y="245.43"/>
     <use style="fill:#e4717a;stroke:#e4717a;" x="595.906918" xlink:href="#m02361c8a0d" y="191.569335"/>
     <use style="fill:#e4717a;stroke:#e4717a;" x="558.106164" xlink:href="#m02361c8a0d" y="151.083666"/>
     <use style="fill:#e4717a;stroke:#e4717a;" x="505.33699" xlink:href="#m02361c8a0d" y="134.198536"/>
     <use style="fill:#e4717a;stroke:#e4717a;" x="450.954165" xlink:href="#m02361c8a0d" y="144.867309"/>
     <use style="fill:#e4717a;stroke:#e4717a;" x="408.229026" xlink:href="#m02361c8a0d" y="180.186118"/>
     <use style="fill:#e4717a;stroke:#e4717a;" x="387.197154" xlink:href="#m02361c8a0d" y="231.488982"/>
     <use style="fill:#e4717a;stroke:#e4717a;" x="392.513547" xlink:href="#m02361c8a0d" y="286.692773"/>
     <use style="fill:#e4717a;stroke:#e4717a;" x="422.699136" xlink:href="#m02361c8a0d" y="333.231873"/>
     <use style="fill:#e4717a;stroke:#e4717a;" x="470.806696" xlink:href="#m02361c8a0d" y="360.872345"/>
     <use style="fill:#e4717a;stroke:#e4717a;" x="526.222781" xlink:href="#m02361c8a0d" y="363.806672"/>
     <use style="fill:#e4717a;stroke:#e4717a;" x="577.114258" xlink:href="#m02361c8a0d" y="341.653168"/>
     <use style="fill:#e4717a;stroke:#e4717a;" x="612.950472" xlink:href="#m02361c8a0d" y="299.255"/>
     <use style="fill:#e4717a;stroke:#e4717a;" x="626.580624" xlink:href="#m02361c8a0d" y="245.43"/>
     <use style="fill:#e4717a;stroke:#e4717a;" x="615.492072" xlink:href="#m02361c8a0d" y="191.015064"/>
     <use style="fill:#e4717a;stroke:#e4717a;" x="582.075827" xlink:href="#m02361c8a0d" y="146.649706"/>
     <use style="fill:#e4717a;stroke:#e4717a;" x="532.934272" xlink:href="#m02361c8a0d" y="120.746255"/>
     <use style="fill:#e4717a;stroke:#e4717a;" x="477.442627" xlink:href="#m02361c8a0d" y="118.012522"/>
     <use style="fill:#e4717a;stroke:#e4717a;" x="425.891799" xlink:href="#m02361c8a0d" y="138.753518"/>
     <use style="fill:#e4717a;stroke:#e4717a;" x="387.583281" xlink:href="#m02361c8a0d" y="179.01495"/>
     <use style="fill:#e4717a;stroke:#e4717a;" x="369.218814" xlink:href="#m02361c8a0d" y="231.475315"/>
     <use style="fill:#e4717a;stroke:#e4717a;" x="373.842892" xlink:href="#m02361c8a0d" y="286.871622"/>
     <use style="fill:#e4717a;stroke:#e4717a;" x="400.476772" xlink:href="#m02361c8a0d" y="335.672558"/>
     <use style="fill:#e4717a;stroke:#e4717a;" x="444.452987" xlink:href="#m02361c8a0d" y="369.697895"/>
     <use style="fill:#e4717a;stroke:#e4717a;" x="498.342319" xlink:href="#m02361c8a0d" y="383.419495"/>
     <use style="fill:#e4717a;stroke:#e4717a;" x="553.278277" xlink:href="#m02361c8a0d" y="374.755147"/>
     <use style="fill:#e4717a;stroke:#e4717a;" x="600.437637" xlink:href="#m02361c8a0d" y="345.264622"/>
     <use style="fill:#e4717a;stroke:#e4717a;" x="632.432055" xlink:href="#m02361c8a0d" y="299.7597"/>
     <use style="fill:#e4717a;stroke:#e4717a;" x="644.400713" xlink:href="#m02361c8a0d" y="245.43"/>
     <use style="fill:#e4717a;stroke:#e4717a;" x="634.657445" xlink:href="#m02361c8a0d" y="190.651913"/>
     <use style="fill:#e4717a;stroke:#e4717a;" x="604.825245" xlink:href="#m02361c8a0d" y="143.681746"/>
     <use style="fill:#e4717a;stroke:#e4717a;" x="559.472604" xlink:href="#m02361c8a0d" y="111.434827"/>
     <use style="fill:#e4717a;stroke:#e4717a;" x="505.337832" xlink:href="#m02361c8a0d" y="98.523416"/>
     <use style="fill:#e4717a;stroke:#e4717a;" x="450.280016" xlink:href="#m02361c8a0d" y="106.67517"/>
     <use style="fill:#e4717a;stroke:#e4717a;" x="402.123169" xlink:href="#m02361c8a0d" y="134.590278"/>
     <use style="fill:#e4717a;stroke:#e4717a;" x="367.562175" xlink:href="#m02361c8a0d" y="178.229468"/>
     <use style="fill:#e4717a;stroke:#e4717a;" x="351.277676" xlink:href="#m02361c8a0d" y="231.466187"/>
     <use style="fill:#e4717a;stroke:#e4717a;" x="355.367543" xlink:href="#m02361c8a0d" y="286.991719"/>
     <use style="fill:#e4717a;stroke:#e4717a;" x="379.152002" xlink:href="#m02361c8a0d" y="337.336299"/>
     <use style="fill:#e4717a;stroke:#e4717a;" x="419.355816" xlink:href="#m02361c8a0d" y="375.863997"/>
     <use style="fill:#e4717a;stroke:#e4717a;" x="470.621384" xlink:href="#m02361c8a0d" y="397.612856"/>
     <use style="fill:#e4717a;stroke:#e4717a;" x="526.267199" xlink:href="#m02361c8a0d" y="399.880935"/>
     <use style="fill:#e4717a;stroke:#e4717a;" x="579.180931" xlink:href="#m02361c8a0d" y="382.498287"/>
     <use style="fill:#e4717a;stroke:#e4717a;" x="622.727165" xlink:href="#m02361c8a0d" y="347.768575"/>
     <use style="fill:#e4717a;stroke:#e4717a;" x="651.556282" xlink:href="#m02361c8a0d" y="300.106146"/>
     <use style="fill:#e4717a;stroke:#e4717a;" x="662.220802" xlink:href="#m02361c8a0d" y="245.43"/>
     <use style="fill:#e4717a;stroke:#e4717a;" x="653.535112" xlink:href="#m02361c8a0d" y="190.40137"/>
     <use style="fill:#e4717a;stroke:#e4717a;" x="626.649469" xlink:href="#m02361c8a0d" y="141.604622"/>
     <use style="fill:#e4717a;stroke:#e4717a;" x="584.844827" xlink:href="#m02361c8a0d" y="104.77131"/>
     <use style="fill:#e4717a;stroke:#e4717a;" x="533.087251" xlink:href="#m02361c8a0d" y="84.135756"/>
     <use style="fill:#e4717a;stroke:#e4717a;" x="477.40592" xlink:href="#m02361c8a0d" y="81.989628"/>
     <use style="fill:#e4717a;stroke:#e4717a;" x="424.174827" xlink:href="#m02361c8a0d" y="98.476075"/>
     <use style="fill:#e4717a;stroke:#e4717a;" x="379.384112" xlink:href="#m02361c8a0d" y="131.634366"/>
     <use style="fill:#e4717a;stroke:#e4717a;" x="347.982825" xlink:href="#m02361c8a0d" y="177.677392"/>
     <use style="fill:#e4717a;stroke:#e4717a;" x="333.362004" xlink:href="#m02361c8a0d" y="231.45979"/>
     <use style="fill:#e4717a;stroke:#e4717a;" x="337.027527" xlink:href="#m02361c8a0d" y="287.076201"/>
     <use style="fill:#e4717a;stroke:#e4717a;" x="358.488711" xlink:href="#m02361c8a0d" y="338.51878"/>
     <use style="fill:#e4717a;stroke:#e4717a;" x="395.364131" xlink:href="#m02361c8a0d" y="380.320911"/>
     <use style="fill:#e4717a;stroke:#e4717a;" x="443.683069" xlink:href="#m02361c8a0d" y="408.119875"/>
     <use style="fill:#e4717a;stroke:#e4717a;" x="498.341846" xlink:href="#m02361c8a0d" y="419.083513"/>
     <use style="fill:#e4717a;stroke:#e4717a;" x="553.660628" xlink:href="#m02361c8a0d" y="412.163193"/>
     <use style="fill:#e4717a;stroke:#e4717a;" x="603.979085" xlink:href="#m02361c8a0d" y="388.155254"/>
     <use style="fill:#e4717a;stroke:#e4717a;" x="644.22882" xlink:href="#m02361c8a0d" y="349.573508"/>
     <use style="fill:#e4717a;stroke:#e4717a;" x="670.426292" xlink:href="#m02361c8a0d" y="300.354167"/>
    </g>
   </g>
   <g id="line2d_10">
    <defs>
     <path d="M 0 3 
C 0.795609 3 1.55874 2.683901 2.12132 2.12132 
C 2.683901 1.55874 3 0.795609 3 0 
C 3 -0.795609 2.683901 -1.55874 2.12132 -2.12132 
C 1.55874 -2.683901 0.795609 -3 0 -3 
C -0.795609 -3 -1.55874 -2.683901 -2.12132 -2.12132 
C -2.683901 -1.55874 -3 -0.795609 -3 0 
C -3 0.795609 -2.683901 1.55874 -2.12132 2.12132 
C -1.55874 2.683901 -0.795609 3 0 3 
z
" id="m3dae9c715e" style="stroke:#008000;"/>
    </defs>
    <g clip-path="url(#padf773c143)">
     <use style="fill:#008000;stroke:#008000;" x="480.211741" xlink:href="#m3dae9c715e" y="232.494408"/>
    </g>
   </g>
   <g id="line2d_11">
    <g clip-path="url(#padf773c143)">
     <use style="fill:#008000;stroke:#008000;" x="498.366444" xlink:href="#m3dae9c715e" y="276.099221"/>
    </g>
   </g>
   <g id="line2d_12">
    <g clip-path="url(#padf773c143)">
     <use style="fill:#008000;stroke:#008000;" x="505.323647" xlink:href="#m3dae9c715e" y="205.735642"/>
    </g>
   </g>
   <g id="line2d_13">
    <g clip-path="url(#padf773c143)">
     <use style="fill:#008000;stroke:#008000;" x="473.119133" xlink:href="#m3dae9c715e" y="282.819849"/>
    </g>
   </g>
   <g id="line2d_14">
    <g clip-path="url(#padf773c143)">
     <use style="fill:#008000;stroke:#008000;" x="477.815035" xlink:href="#m3dae9c715e" y="191.430811"/>
    </g>
   </g>
   <g id="line2d_15">
    <g clip-path="url(#padf773c143)">
     <use style="fill:#008000;stroke:#008000;" x="451.208264" xlink:href="#m3dae9c715e" y="284.985655"/>
    </g>
   </g>
   <g id="line2d_16">
    <g clip-path="url(#padf773c143)">
     <use style="fill:#008000;stroke:#008000;" x="554.40874" xlink:href="#m3dae9c715e" y="194.098018"/>
    </g>
   </g>
   <g id="line2d_17">
    <g clip-path="url(#padf773c143)">
     <use style="fill:#008000;stroke:#008000;" x="452.74271" xlink:href="#m3dae9c715e" y="185.238539"/>
    </g>
   </g>
   <g id="line2d_18">
    <g clip-path="url(#padf773c143)">
     <use style="fill:#008000;stroke:#008000;" x="526.111629" xlink:href="#m3dae9c715e" y="327.373067"/>
    </g>
   </g>
   <g id="line2d_19">
    <g clip-path="url(#padf773c143)">
     <use style="fill:#008000;stroke:#008000;" x="429.790576" xlink:href="#m3dae9c715e" y="182.042365"/>
    </g>
   </g>
   <g id="line2d_20">
    <g clip-path="url(#padf773c143)">
     <use style="fill:#008000;stroke:#008000;" x="411.480282" xlink:href="#m3dae9c715e" y="286.409803"/>
    </g>
   </g>
   <g id="line2d_21">
    <g clip-path="url(#padf773c143)">
     <use style="fill:#008000;stroke:#008000;" x="595.906918" xlink:href="#m3dae9c715e" y="191.569335"/>
    </g>
   </g>
   <g id="line2d_22">
    <g clip-path="url(#padf773c143)">
     <use style="fill:#008000;stroke:#008000;" x="408.229026" xlink:href="#m3dae9c715e" y="180.186118"/>
    </g>
   </g>
   <g id="line2d_23">
    <g clip-path="url(#padf773c143)">
     <use style="fill:#008000;stroke:#008000;" x="392.513547" xlink:href="#m3dae9c715e" y="286.692773"/>
    </g>
   </g>
   <g id="line2d_24">
    <g clip-path="url(#padf773c143)">
     <use style="fill:#008000;stroke:#008000;" x="577.114258" xlink:href="#m3dae9c715e" y="341.653168"/>
    </g>
   </g>
   <g id="line2d_25">
    <g clip-path="url(#padf773c143)">
     <use style="fill:#008000;stroke:#008000;" x="477.442627" xlink:href="#m3dae9c715e" y="118.012522"/>
    </g>
   </g>
   <g id="line2d_26">
    <g clip-path="url(#padf773c143)">
     <use style="fill:#008000;stroke:#008000;" x="444.452987" xlink:href="#m3dae9c715e" y="369.697895"/>
    </g>
   </g>
   <g id="line2d_27">
    <g clip-path="url(#padf773c143)">
     <use style="fill:#008000;stroke:#008000;" x="553.278277" xlink:href="#m3dae9c715e" y="374.755147"/>
    </g>
   </g>
   <g id="line2d_28">
    <g clip-path="url(#padf773c143)">
     <use style="fill:#008000;stroke:#008000;" x="559.472604" xlink:href="#m3dae9c715e" y="111.434827"/>
    </g>
   </g>
   <g id="line2d_29">
    <g clip-path="url(#padf773c143)">
     <use style="fill:#008000;stroke:#008000;" x="367.562175" xlink:href="#m3dae9c715e" y="178.229468"/>
    </g>
   </g>
   <g id="line2d_30">
    <g clip-path="url(#padf773c143)">
     <use style="fill:#008000;stroke:#008000;" x="355.367543" xlink:href="#m3dae9c715e" y="286.991719"/>
    </g>
   </g>
   <g id="line2d_31">
    <g clip-path="url(#padf773c143)">
     <use style="fill:#008000;stroke:#008000;" x="622.727165" xlink:href="#m3dae9c715e" y="347.768575"/>
    </g>
   </g>
   <g id="line2d_32">
    <g clip-path="url(#padf773c143)">
     <use style="fill:#008000;stroke:#008000;" x="626.649469" xlink:href="#m3dae9c715e" y="141.604622"/>
    </g>
   </g>
   <g id="line2d_33">
    <g clip-path="url(#padf773c143)">
     <use style="fill:#008000;stroke:#008000;" x="347.982825" xlink:href="#m3dae9c715e" y="177.677392"/>
    </g>
   </g>
   <g id="line2d_34">
    <g clip-path="url(#padf773c143)">
     <use style="fill:#008000;stroke:#008000;" x="603.979085" xlink:href="#m3dae9c715e" y="388.155254"/>
    </g>
   </g>
   <g id="line2d_35">
    <path clip-path="url(#padf773c143)" d="M 501.84 245.43 
L 502.605683 245.209001 
L 503.060059 244.784408 
L 503.347668 244.189999 
L 503.428993 243.473929 
L 503.272181 242.695859 
L 502.901318 241.981322 
L 502.29754 241.31434 
L 501.525839 240.793721 
L 500.622787 240.442465 
L 499.56216 240.275681 
L 498.44677 240.335145 
L 497.320756 240.625674 
L 496.22746 241.145654 
L 495.208881 241.886957 
L 494.342192 242.788707 
L 493.610001 243.865744 
L 493.043856 245.096219 
L 492.671677 246.453107 
L 492.518677 247.846437 
L 492.583308 249.300243 
L 492.863524 250.724042 
L 493.366571 252.142782 
L 494.096142 253.521175 
L 495.01306 254.778869 
L 496.135152 255.934986 
L 497.403734 256.92396 
L 498.842204 257.759392 
L 500.377416 258.394206 
L 502.036239 258.835146 
L 503.736509 259.055945 
L 505.449353 259.059467 
L 507.204084 258.841212 
L 508.916626 258.406887 
L 510.614302 257.744692 
L 512.217156 256.880608 
L 513.704342 255.831969 
L 515.097967 254.577088 
L 516.333222 253.16749 
L 517.426333 251.576978 
L 518.326213 249.870809 
L 519.024961 248.073866 
L 519.52902 246.155201 
L 519.812499 244.192638 
L 519.876008 242.21151 
L 519.715255 240.179905 
L 519.331309 238.179182 
L 518.732615 236.232619 
L 517.929675 234.36173 
L 516.904521 232.538374 
L 515.691579 230.834894 
L 514.307224 229.268278 
L 512.7254 227.817275 
L 511.001092 226.53975 
L 509.154834 225.446821 
L 507.207567 224.547218 
L 505.126166 223.831687 
L 502.983362 223.331054 
L 500.80163 223.047481 
L 498.546551 222.982043 
L 496.296645 223.142537 
L 494.073987 223.524497 
L 491.899582 224.121496 
L 489.793229 224.925323 
L 487.724173 225.953612 
L 485.764393 227.176756 
L 483.930624 228.581259 
L 482.237909 230.152447 
L 480.664068 231.918419 
L 479.264605 233.825181 
L 478.049985 235.854366 
L 477.028741 237.987127 
L 476.190438 240.257982 
L 475.566878 242.596666 
L 475.161181 244.982552 
L 474.974551 247.395235 
L 475.006365 249.814682 
L 475.26257 252.277045 
L 475.740714 254.705857 
L 476.434817 257.081755 
L 477.337347 259.38633 
L 478.439346 261.60223 
L 479.762027 263.759885 
L 481.270409 265.791816 
L 482.951162 267.683391 
L 484.789988 269.42143 
L 486.771766 270.994231 
L 488.928889 272.420598 
L 491.201439 273.654418 
L 493.571546 274.688109 
L 496.021058 275.51574 
L 498.531684 276.133004 
L 501.140981 276.543596 
L 503.775607 276.730528 
L 506.416457 276.694209 
L 509.044818 276.436619 
L 511.642488 275.961233 
L 514.191882 275.27294 
L 516.728155 274.356728 
L 519.179365 273.23291 
L 521.529354 271.910699 
L 523.762992 270.400446 
L 525.866243 268.713536 
L 527.865444 266.822052 
L 529.702916 264.773262 
L 531.367563 262.581884 
L 532.84965 260.26327 
L 534.14082 257.833287 
L 535.2341 255.3082 
L 536.13991 252.650713 
L 536.829394 249.929181 
L 537.299558 247.161425 
L 537.548852 244.365212 
L 537.577129 241.558151 
L 537.385609 238.757586 
L 536.976821 235.980502 
L 536.339964 233.189207 
L 535.486312 230.456506 
L 534.422395 227.7987 
L 533.15589 225.231348 
L 531.695544 222.769189 
L 530.051091 220.42609 
L 528.195862 218.173026 
L 526.172437 216.069831 
L 523.993742 214.128058 
L 521.673391 212.358118 
L 519.225581 210.769255 
L 516.665003 209.369525 
L 514.00674 208.165783 
L 511.212765 207.146412 
L 508.349797 206.341193 
L 505.434463 205.753526 
L 502.483416 205.385534 
L 499.513242 205.238087 
L 496.540369 205.310827 
L 493.580983 205.602206 
L 490.596048 206.121145 
L 487.657932 206.8602 
L 484.782478 207.814186 
L 481.984945 208.976833 
L 479.279947 210.340848 
L 476.681384 211.897977 
L 474.202392 213.639071 
L 471.813144 215.591199 
L 469.572816 217.712487 
L 467.492542 219.99087 
L 465.582455 222.413632 
L 463.851658 224.967492 
L 462.308204 227.638682 
L 460.959074 230.413033 
L 459.810171 233.276049 
L 458.851079 236.266986 
L 458.108491 239.318835 
L 457.585183 242.415776 
L 457.28279 245.541976 
L 457.201819 248.681672 
L 457.341672 251.819246 
L 457.700675 254.939301 
L 458.276111 258.026726 
L 459.080233 261.120536 
L 460.099762 264.150144 
L 461.328745 267.100951 
L 462.760285 269.958932 
L 464.3866 272.71069 
L 466.19907 275.343509 
L 468.188305 277.845398 
L 470.344199 280.205132 
L 472.697878 282.449592 
L 475.201016 284.525988 
L 477.841096 286.425152 
L 480.605106 288.138868 
L 483.479617 289.659885 
L 486.45085 290.981934 
L 489.504748 292.099737 
L 492.627046 293.009013 
L 495.858488 293.716627 
L 499.130561 294.202651 
L 502.428016 294.465728 
L 505.735672 294.505533 
L 509.038476 294.322759 
L 512.321574 293.919095 
L 515.570371 293.297195 
L 518.77059 292.460654 
L 521.90833 291.413967 
L 525.021285 290.139556 
L 528.042038 288.659884 
L 530.957495 286.982311 
L 533.755174 285.114985 
L 536.423248 283.066799 
L 538.950586 280.847333 
L 541.326784 278.466802 
L 543.542201 275.936002 
L 545.587986 273.26625 
L 547.485685 270.421706 
L 549.192174 267.458537 
L 550.700789 264.389932 
L 552.005785 261.229388 
L 553.10234 257.990653 
L 553.986564 254.687657 
L 554.655497 251.334455 
L 555.107102 247.945165 
L 555.340263 244.533909 
L 555.353189 241.058713 
L 555.140962 237.590009 
L 554.70524 234.14227 
L 554.048593 230.729739 
L 553.174476 227.366365 
L 552.087198 224.065758 
L 550.791895 220.841137 
L 549.294491 217.705283 
L 547.601663 214.670492 
L 545.720802 211.74854 
L 543.625307 208.906588 
L 541.353122 206.203851 
L 538.913999 203.650793 
L 536.318266 201.257172 
L 533.576776 199.032019 
L 530.700854 196.983611 
L 527.70225 195.119449 
L 524.593079 193.446244 
L 521.385775 191.969901 
L 518.093033 190.695509 
L 514.673828 189.612064 
L 511.193468 188.745035 
L 507.665761 188.097141 
L 504.104573 187.670226 
L 500.523771 187.465262 
L 496.937171 187.482359 
L 493.358485 187.720778 
L 489.801273 188.178947 
L 486.27889 188.85448 
L 482.804444 189.744196 
L 479.337956 190.862975 
L 475.947193 192.193679 
L 472.644816 193.730622 
L 469.443038 195.46739 
L 466.35359 197.396872 
L 463.387679 199.511302 
L 460.555957 201.802294 
L 457.868488 204.260883 
L 455.334721 206.877566 
L 452.963463 209.642344 
L 450.762855 212.544766 
L 448.71067 215.621506 
L 446.849182 218.817209 
L 445.184698 222.119785 
L 443.722751 225.516855 
L 442.468089 228.9958 
L 441.424675 232.543812 
L 440.595675 236.147937 
L 439.983465 239.795132 
L 439.589628 243.472303 
L 439.414964 247.16636 
L 439.459494 250.864258 
L 439.728129 254.6088 
L 440.220303 258.330545 
L 440.933656 262.016277 
L 441.865061 265.653013 
L 443.010647 269.228046 
L 444.365822 272.72899 
L 445.925298 276.143814 
L 447.683119 279.460879 
L 449.632691 282.668979 
L 451.766811 285.757368 
L 454.077701 288.715794 
L 456.595279 291.575489 
L 459.277143 294.281693 
L 462.113565 296.825416 
L 465.094357 299.198299 
L 468.208916 301.392633 
L 471.446262 303.401377 
L 474.79508 305.218175 
L 478.243766 306.83737 
L 481.780466 308.25401 
L 485.39312 309.463859 
L 489.069504 310.4634 
L 492.797277 311.249842 
L 496.619636 311.827904 
L 500.469099 312.183021 
L 504.332655 312.314551 
L 508.197341 312.222605 
L 512.050287 311.908036 
L 515.878754 311.372429 
L 519.670178 310.618086 
L 523.412206 309.648012 
L 527.092737 308.465893 
L 530.699955 307.076077 
L 534.222367 305.483555 
L 537.697732 303.666579 
L 541.063126 301.653228 
L 544.307765 299.450577 
L 547.421338 297.06627 
L 550.394029 294.508487 
L 553.216551 291.785911 
L 555.880163 288.907697 
L 558.376696 285.883433 
L 560.69857 282.723109 
L 562.838811 279.437075 
L 564.791069 276.03601 
L 566.549629 272.530881 
L 568.109421 268.932907 
L 569.483917 265.200425 
L 570.645471 261.3963 
L 571.590875 257.532793 
L 572.317623 253.622267 
L 572.823919 249.677149 
L 573.108668 245.709895 
L 573.171477 241.732942 
L 573.012643 237.758677 
L 572.633148 233.799397 
L 572.034648 229.86727 
L 571.21946 225.974301 
L 570.190547 222.132299 
L 568.93257 218.300106 
L 567.462896 214.544022 
L 565.786543 210.875526 
L 563.909138 207.305752 
L 561.836885 203.845461 
L 559.576549 200.505007 
L 557.135421 197.294311 
L 554.521296 194.22284 
L 551.74244 191.299578 
L 548.807565 188.533006 
L 545.725792 185.931081 
L 542.506626 183.501221 
L 539.159919 181.250285 
L 535.646948 179.1572 
L 532.024214 177.260443 
L 528.302874 175.565323 
L 524.49431 174.07651 
L 520.610096 172.798028 
L 516.661956 171.733249 
L 512.661735 170.884892 
L 508.621357 170.255019 
L 504.552791 169.845035 
L 500.468015 169.655695 
L 496.378984 169.687102 
L 492.297591 169.938721 
L 488.235634 170.409379 
L 484.204788 171.09728 
L 480.162281 172.013861 
L 476.175365 173.148061 
L 472.2556 174.496126 
L 468.414281 176.053695 
L 464.662407 177.81583 
L 461.010652 179.777026 
L 457.469341 181.931242 
L 454.048418 184.271914 
L 450.757428 186.791986 
L 447.605486 189.483932 
L 444.601263 192.339783 
L 441.752961 195.351151 
L 439.068296 198.509263 
L 436.521711 201.850416 
L 434.157587 205.323059 
L 431.982329 208.917013 
L 430.001765 212.621814 
L 428.221138 216.426743 
L 426.645097 220.320859 
L 425.277688 224.293033 
L 424.122348 228.33198 
L 423.181904 232.426294 
L 422.458569 236.564476 
L 421.953941 240.734974 
L 421.669004 244.926208 
L 421.604134 249.126608 
L 421.759101 253.324642 
L 422.133075 257.508847 
L 422.733985 261.723097 
L 423.556233 265.899798 
L 424.597128 270.027436 
L 425.853392 274.094695 
L 427.32117 278.090488 
L 428.996047 282.003983 
L 430.873069 285.824636 
L 432.946756 289.54221 
L 435.211125 293.146805 
L 437.659711 296.628878 
L 440.285585 299.97927 
L 443.081382 303.189224 
L 446.039321 306.250404 
L 449.151228 309.154916 
L 452.452357 311.930256 
L 455.893536 314.52991 
L 459.4652 316.947153 
L 463.157483 319.17579 
L 466.960251 321.210166 
L 470.863122 323.045174 
L 474.855507 324.676269 
L 478.92663 326.099469 
L 483.065565 327.311366 
L 487.261265 328.309128 
L 491.502588 329.090499 
L 495.778333 329.653804 
L 500.077265 329.997946 
L 504.388146 330.122405 
L 508.699767 330.027233 
L 513.056715 329.707535 
L 517.391466 329.164335 
L 521.692633 328.399447 
L 525.948969 327.415262 
L 530.149408 326.214728 
L 534.283083 324.801346 
L 538.339355 323.179152 
L 542.30784 321.352703 
L 546.178436 319.327059 
L 549.94134 317.10777 
L 553.587075 314.700853 
L 557.106513 312.112777 
L 560.490891 309.35044 
L 563.731833 306.421146 
L 566.82137 303.332589 
L 569.788458 300.050345 
L 572.585103 296.621722 
L 575.204393 293.055779 
L 577.639904 289.361883 
L 579.885715 285.549685 
L 581.936415 281.629086 
L 583.787118 277.610216 
L 585.433465 273.503404 
L 586.871634 269.31915 
L 588.098346 265.068098 
L 589.110867 260.76101 
L 589.907011 256.408733 
L 590.485141 252.022177 
L 590.84417 247.612284 
L 590.983558 243.190002 
L 590.903309 238.766257 
L 590.598777 234.296158 
L 590.070694 229.846932 
L 589.320738 225.429693 
L 588.351134 221.055422 
L 587.16464 216.73494 
L 585.764544 212.478884 
L 584.154643 208.297681 
L 582.339236 204.201527 
L 580.323106 200.200357 
L 578.111506 196.303832 
L 575.710141 192.521308 
L 573.125154 188.861822 
L 570.363103 185.334072 
L 567.430948 181.946394 
L 564.336024 178.706749 
L 561.086025 175.622707 
L 557.645625 172.665972 
L 554.063149 169.883085 
L 550.34757 167.280584 
L 546.508144 164.864533 
L 542.554386 162.640517 
L 538.496044 160.613633 
L 534.343074 158.788475 
L 530.105617 157.169134 
L 525.793969 155.759185 
L 521.418557 154.56169 
L 516.989916 153.579188 
L 512.518657 152.813695 
L 508.015448 152.266705 
L 503.490984 151.939188 
L 498.955962 151.831592 
L 494.421058 151.943846 
L 489.841158 152.280824 
L 485.283221 152.841373 
L 480.7581 153.623825 
L 476.276518 154.62599 
L 471.84905 155.845167 
L 467.486095 157.278153 
L 463.197855 158.921254 
L 458.994312 160.770298 
L 454.885205 162.820649 
L 450.880011 165.067218 
L 446.987922 167.504482 
L 443.217829 170.126498 
L 439.5783 172.92692 
L 436.077567 175.899015 
L 432.723503 179.035686 
L 429.523614 182.329486 
L 426.485018 185.772638 
L 423.580491 189.40161 
L 420.854639 193.166632 
L 418.313555 197.058743 
L 415.962882 201.06872 
L 413.807793 205.18711 
L 411.85299 209.404248 
L 410.102694 213.710282 
L 408.560637 218.095197 
L 407.23006 222.548842 
L 406.113707 227.060948 
L 405.213822 231.621158 
L 404.532149 236.219047 
L 404.06993 240.844151 
L 403.827906 245.485984 
L 403.806319 250.134068 
L 404.004916 254.777953 
L 404.422949 259.407243 
L 405.068176 264.066895 
L 405.935115 268.690428 
L 407.021489 273.267369 
L 408.324532 277.787396 
L 409.840999 282.240355 
L 411.567177 286.616289 
L 413.498894 290.905452 
L 415.631536 295.098332 
L 417.960058 299.185673 
L 420.478996 303.158492 
L 423.182485 307.008095 
L 426.064275 310.726099 
L 429.117743 314.304444 
L 432.335917 317.735413 
L 435.711486 321.011643 
L 439.236827 324.12614 
L 442.904014 327.072293 
L 446.704847 329.843885 
L 450.678319 332.464842 
L 454.770958 334.895517 
L 458.973516 337.130765 
L 463.276544 339.165894 
L 467.670405 340.996673 
L 472.1453 342.619337 
L 476.691292 344.030594 
L 481.298326 345.227628 
L 485.956254 346.208101 
L 490.654856 346.970159 
L 495.383862 347.512427 
L 500.132977 347.834013 
L 504.891904 347.934507 
L 509.650362 347.813976 
L 514.398112 347.472963 
L 519.124976 346.912483 
L 523.820861 346.134015 
L 528.475778 345.1395 
L 533.133689 343.915857 
L 537.729501 342.476444 
L 542.253325 340.824662 
L 546.695463 338.964356 
L 551.046431 336.899804 
L 555.296979 334.635713 
L 559.438105 332.177195 
L 563.461077 329.529763 
L 567.357449 326.699312 
L 571.119074 323.692103 
L 574.738126 320.514751 
L 578.207108 317.174207 
L 581.518869 313.677741 
L 584.666616 310.032923 
L 587.643928 306.247611 
L 590.444763 302.329925 
L 593.063475 298.288235 
L 595.494815 294.131137 
L 597.733947 289.867437 
L 599.799029 285.454879 
L 601.658749 280.951921 
L 603.309425 276.368208 
L 604.747827 271.713518 
L 605.971186 266.997748 
L 606.977193 262.230881 
L 607.764005 257.422975 
L 608.330244 252.584134 
L 608.674995 247.724492 
L 608.797812 242.854188 
L 608.698706 237.983346 
L 608.37815 233.122058 
L 607.837075 228.280354 
L 607.07686 223.468193 
L 606.09933 218.695433 
L 604.906751 213.97182 
L 603.50182 209.306962 
L 601.887658 204.710312 
L 600.067802 200.191153 
L 598.021798 195.708165 
L 595.773867 191.322952 
L 593.328901 187.044471 
L 590.692181 182.881428 
L 587.869363 178.842258 
L 584.866468 174.935112 
L 581.689862 171.167843 
L 578.346247 167.547989 
L 574.842637 164.082761 
L 571.186353 160.779031 
L 567.384995 157.643317 
L 563.446434 154.681775 
L 559.378788 151.900188 
L 555.19041 149.303955 
L 550.889864 146.898084 
L 546.485911 144.687183 
L 541.987489 142.675455 
L 537.403692 140.866688 
L 532.743755 139.264256 
L 527.962972 137.85649 
L 523.123656 136.665401 
L 518.235674 135.693149 
L 513.308955 134.941448 
L 508.353473 134.41156 
L 503.379225 134.104295 
L 498.396211 134.020015 
L 493.414416 134.158637 
L 488.443786 134.519628 
L 483.494213 135.102017 
L 478.575513 135.904397 
L 473.697407 136.924926 
L 468.869504 138.16134 
L 464.101279 139.610954 
L 459.402062 141.270674 
L 454.78101 143.137 
L 450.247102 145.206043 
L 445.809111 147.473526 
L 441.475599 149.934803 
L 437.254891 152.584861 
L 433.109719 155.451199 
L 429.096247 158.499208 
L 425.222271 161.722654 
L 421.495286 165.114976 
L 417.922472 168.669303 
L 414.510682 172.378467 
L 411.266431 176.235023 
L 408.195884 180.23126 
L 405.304847 184.359218 
L 402.598756 188.61071 
L 400.082671 192.977334 
L 397.761266 197.450491 
L 395.638822 202.021407 
L 393.719223 206.681144 
L 392.00595 211.420625 
L 390.502073 216.230648 
L 389.210253 221.101904 
L 388.132735 226.025 
L 387.271347 230.99047 
L 386.627501 235.988803 
L 386.198692 241.066342 
L 385.993889 246.157836 
L 386.013247 251.253409 
L 386.256488 256.343206 
L 386.722901 261.41742 
L 387.411352 266.4663 
L 388.320278 271.48018 
L 389.447705 276.449488 
L 390.791243 281.364769 
L 392.348098 286.216704 
L 394.115081 290.996119 
L 396.088612 295.694011 
L 398.264731 300.30156 
L 400.639107 304.810141 
L 403.207048 309.211348 
L 405.963514 313.497001 
L 408.903125 317.659163 
L 412.020173 321.690153 
L 415.308639 325.582563 
L 418.762198 329.329262 
L 422.374242 332.923418 
L 426.180058 336.39534 
L 430.133438 339.698256 
L 434.22674 342.826085 
L 438.452084 345.773099 
L 442.801362 348.533927 
L 447.266261 351.103566 
L 451.838276 353.477389 
L 456.508725 355.651147 
L 461.268773 357.620982 
L 466.109442 359.383426 
L 471.021632 360.935408 
L 475.996138 362.27426 
L 481.023669 363.397715 
L 486.094862 364.303913 
L 491.200304 364.9914 
L 496.330545 365.459132 
L 501.476121 365.706471 
L 506.627567 365.733184 
L 511.775435 365.539447 
L 516.910315 365.125834 
L 522.022846 364.493323 
L 527.158757 363.632857 
L 532.252828 362.551934 
L 537.295658 361.252781 
L 542.277969 359.738021 
L 547.190621 358.010668 
L 552.024631 356.074119 
L 556.771187 353.932146 
L 561.421666 351.588884 
L 565.967645 349.048828 
L 570.400917 346.316816 
L 574.713506 343.398024 
L 578.897679 340.297953 
L 582.945959 337.022414 
L 586.851139 333.577523 
L 590.606291 329.969682 
L 594.204779 326.205569 
L 597.640269 322.292124 
L 600.906739 318.236535 
L 603.998488 314.046225 
L 606.910144 309.728837 
L 609.636675 305.292218 
L 612.173393 300.744405 
L 614.540081 296.043072 
L 616.704316 291.245176 
L 618.662373 286.359511 
L 620.410908 281.395007 
L 621.946967 276.360706 
L 623.267988 271.265753 
L 624.371801 266.119374 
L 625.256636 260.930861 
L 625.921118 255.709554 
L 626.36427 250.464825 
L 626.585514 245.206062 
L 626.58467 239.942648 
L 626.361951 234.683951 
L 625.917966 229.4393 
L 625.253712 224.217975 
L 624.370574 219.029188 
L 623.27032 213.882066 
L 621.955093 208.785637 
L 620.427411 203.748815 
L 618.690155 198.780384 
L 616.746567 193.888982 
L 614.600239 189.083089 
L 612.229106 184.321417 
L 609.659329 179.663947 
L 606.89566 175.118852 
L 603.943181 170.694081 
L 600.807291 166.397348 
L 597.493702 162.236119 
L 594.008421 158.217601 
L 590.357738 154.348728 
L 586.54822 150.636153 
L 582.58669 147.086237 
L 578.480221 143.705037 
L 574.236116 140.4983 
L 569.861901 137.471452 
L 565.365305 134.629592 
L 560.754248 131.977482 
L 556.036829 129.519543 
L 551.221305 127.259848 
L 546.316081 125.202116 
L 541.329695 123.349708 
L 536.2708 121.705623 
L 531.148148 120.272492 
L 525.970579 119.05258 
L 520.747002 118.047779 
L 515.430838 117.25247 
L 510.086134 116.679556 
L 504.722202 116.329831 
L 499.348363 116.203695 
L 493.97393 116.301163 
L 488.608189 116.621864 
L 483.260389 117.165039 
L 477.939721 117.929552 
L 472.655306 118.913889 
L 467.416175 120.11616 
L 462.231259 121.534112 
L 457.109373 123.165124 
L 452.0592 125.006223 
L 447.089275 127.054083 
L 442.207978 129.305038 
L 437.423512 131.755085 
L 432.743896 134.399896 
L 428.17695 137.234825 
L 423.730283 140.254916 
L 419.411281 143.454916 
L 415.227095 146.829282 
L 411.184631 150.372195 
L 407.290539 154.077567 
L 403.513089 157.980077 
L 399.899936 162.035176 
L 396.457085 166.235825 
L 393.190233 170.574758 
L 390.104766 175.044494 
L 387.205747 179.63735 
L 384.497911 184.345453 
L 381.985658 189.16076 
L 379.673047 194.075067 
L 377.563791 199.080025 
L 375.66125 204.167154 
L 373.968432 209.327861 
L 372.487985 214.553451 
L 371.222194 219.835144 
L 370.172982 225.164087 
L 369.341907 230.531375 
L 368.730159 235.928061 
L 368.338563 241.345171 
L 368.167576 246.773724 
L 368.217291 252.204739 
L 368.487436 257.629259 
L 368.977376 263.038356 
L 369.686116 268.423153 
L 370.622983 273.829805 
L 371.780048 279.193646 
L 373.15519 284.50576 
L 374.74593 289.757341 
L 376.549436 294.939705 
L 378.562532 300.044308 
L 380.781701 305.062754 
L 383.203093 309.986812 
L 385.822537 314.808429 
L 388.635544 319.519741 
L 391.637317 324.113084 
L 394.822764 328.58101 
L 398.1865 332.916295 
L 401.722866 337.111949 
L 405.425933 341.16123 
L 409.289516 345.057652 
L 413.307181 348.794992 
L 417.472265 352.367305 
L 421.777877 355.768927 
L 426.216917 358.994485 
L 430.78209 362.038905 
L 435.465911 364.897419 
L 440.260725 367.565569 
L 445.158716 370.039216 
L 450.203337 372.336729 
L 455.33678 374.428261 
L 460.550575 376.310564 
L 465.836143 377.980741 
L 471.184807 379.436246 
L 476.587811 380.674888 
L 482.036332 381.694836 
L 487.521494 382.494617 
L 493.034386 383.073118 
L 498.566072 383.429588 
L 504.10761 383.563633 
L 509.650063 383.475223 
L 515.184514 383.164682 
L 520.702082 382.632692 
L 526.193934 381.880286 
L 531.651301 380.908851 
L 537.065489 379.720118 
L 542.427897 378.31616 
L 547.730024 376.699389 
L 552.963488 374.87255 
L 558.120035 372.838714 
L 563.191554 370.601273 
L 568.170089 368.163932 
L 573.047849 365.530704 
L 577.81722 362.705901 
L 582.517169 359.662766 
L 587.09151 356.433901 
L 591.53302 353.024627 
L 595.834703 349.440542 
L 599.989806 345.687509 
L 603.991823 341.771648 
L 607.834511 337.69932 
L 611.511891 333.477121 
L 615.018264 329.11187 
L 618.348215 324.610593 
L 621.496618 319.980517 
L 624.45865 315.229055 
L 627.229792 310.36379 
L 629.805834 305.392471 
L 632.182885 300.322992 
L 634.357374 295.163382 
L 636.326057 289.921793 
L 638.086019 284.606487 
L 639.634677 279.225818 
L 640.969785 273.788225 
L 642.089432 268.302216 
L 642.99205 262.776351 
L 643.676408 257.219235 
L 644.141617 251.639499 
L 644.387131 246.04579 
L 644.411887 240.390767 
L 644.212458 234.739209 
L 643.789335 229.099986 
L 643.143356 223.481929 
L 642.275707 217.893814 
L 641.187918 212.34435 
L 639.881858 206.842167 
L 638.359733 201.395797 
L 636.624079 196.01367 
L 634.677758 190.704093 
L 632.523951 185.475242 
L 630.166153 180.33515 
L 627.608169 175.291694 
L 624.854099 170.352582 
L 621.908341 165.525345 
L 618.775574 160.817323 
L 615.460754 156.235657 
L 611.969108 151.787278 
L 608.306117 147.478895 
L 604.477514 143.316991 
L 600.489272 139.307805 
L 596.347593 135.457335 
L 592.058899 131.77132 
L 587.629819 128.255235 
L 583.067181 124.914289 
L 578.330964 121.723029 
L 573.473094 118.720202 
L 568.501147 115.910291 
L 563.422858 113.297469 
L 558.24611 110.8856 
L 552.978915 108.678229 
L 547.629409 106.678581 
L 542.205832 104.889556 
L 536.71652 103.313724 
L 531.169891 101.953327 
L 525.57443 100.810272 
L 519.938676 99.886132 
L 514.271213 99.182145 
L 508.58065 98.699211 
L 502.875615 98.437894 
L 497.164736 98.398425 
L 491.45663 98.580694 
L 485.759893 98.984263 
L 480.083083 99.60836 
L 474.43471 100.451881 
L 468.82322 101.5134 
L 463.256987 102.791165 
L 457.744298 104.283105 
L 452.293343 105.986835 
L 446.9122 107.899658 
L 441.608825 110.018573 
L 436.340338 112.364034 
L 431.167035 114.912578 
L 426.096663 117.660205 
L 421.136795 120.602621 
L 416.294819 123.735251 
L 411.577931 127.053241 
L 406.993123 130.551471 
L 402.547174 134.224562 
L 398.246638 138.066885 
L 394.09784 142.072571 
L 390.106862 146.235518 
L 386.279539 150.549404 
L 382.621448 155.007697 
L 379.137904 159.603665 
L 375.83395 164.330384 
L 372.714352 169.180753 
L 369.783593 174.147504 
L 367.045868 179.223212 
L 364.505075 184.400307 
L 362.164816 189.671086 
L 360.028391 195.027727 
L 358.09879 200.462297 
L 356.378695 205.966765 
L 354.870476 211.533017 
L 353.576187 217.152864 
L 352.497565 222.818059 
L 351.636028 228.520305 
L 350.987502 234.307022 
L 350.562219 240.114414 
L 350.360647 245.933866 
L 350.382923 251.756764 
L 350.628854 257.574509 
L 351.097915 263.378525 
L 351.789257 269.160277 
L 352.701704 274.911281 
L 353.833758 280.623114 
L 355.183602 286.287432 
L 356.749106 291.895976 
L 358.527826 297.440587 
L 360.517015 302.913216 
L 362.713625 308.305938 
L 365.114309 313.610958 
L 367.715434 318.820628 
L 370.513083 323.927453 
L 373.503062 328.924104 
L 376.680907 333.803425 
L 380.041894 338.558448 
L 383.581041 343.182396 
L 387.293123 347.668697 
L 391.172676 352.01099 
L 395.214007 356.203134 
L 399.411201 360.239219 
L 403.758135 364.113567 
L 408.248482 367.820747 
L 412.92086 371.388711 
L 417.725883 374.775928 
L 422.656477 377.977602 
L 427.7054 380.989218 
L 432.865255 383.806545 
L 438.128501 386.425645 
L 443.48746 388.842871 
L 448.934336 391.054876 
L 454.461218 393.058615 
L 460.060101 394.851352 
L 465.722891 396.430656 
L 471.441418 397.794409 
L 477.207451 398.940807 
L 483.012707 399.868359 
L 488.848865 400.575891 
L 494.707577 401.062545 
L 500.580478 401.327779 
L 506.459204 401.371367 
L 512.335396 401.193401 
L 518.200718 400.794284 
L 524.046865 400.174733 
L 529.865578 399.335774 
L 535.648653 398.278745 
L 541.387952 397.005284 
L 547.075416 395.517333 
L 552.703075 393.817133 
L 558.263061 391.907217 
L 563.747616 389.790409 
L 569.20012 387.446744 
L 574.560245 384.898879 
L 579.820418 382.150582 
L 584.973222 379.2059 
L 590.011409 376.06915 
L 594.927908 372.744913 
L 599.715836 369.238026 
L 604.368505 365.553575 
L 608.87943 361.696887 
L 613.242341 357.67352 
L 617.451191 353.489256 
L 621.500157 349.150094 
L 625.383658 344.662235 
L 629.096353 340.03208 
L 632.633152 335.266213 
L 635.989222 330.371398 
L 639.159991 325.354562 
L 642.141157 320.222793 
L 644.928689 314.983322 
L 647.518834 309.643515 
L 649.908123 304.210866 
L 652.093369 298.69298 
L 654.071679 293.097567 
L 655.840448 287.432428 
L 657.397368 281.705445 
L 658.74043 275.92457 
L 659.86792 270.097814 
L 660.778428 264.233235 
L 661.476333 258.283204 
L 661.951183 252.311233 
L 662.20246 246.325686 
L 662.229961 240.334931 
L 662.033795 234.347327 
L 661.614384 228.371209 
L 660.972457 222.414885 
L 660.109054 216.486613 
L 659.025516 210.594602 
L 657.72349 204.746989 
L 656.20492 198.951837 
L 654.472047 193.21712 
L 652.527402 187.550712 
L 650.373804 181.960379 
L 648.014352 176.453766 
L 645.452425 171.038388 
L 642.691671 165.72162 
L 639.736004 160.510688 
L 636.589599 155.41266 
L 633.25688 150.434432 
L 629.742522 145.582728 
L 626.051434 140.864084 
L 622.188759 136.28484 
L 618.159862 131.851138 
L 613.970325 127.568909 
L 609.625935 123.443865 
L 605.132681 119.481497 
L 600.496739 115.687063 
L 595.724468 112.065585 
L 590.775991 108.590511 
L 585.702161 105.301165 
L 580.510017 102.201941 
L 575.20675 99.296964 
L 569.799688 96.590082 
L 564.296287 94.084869 
L 558.704119 91.784615 
L 553.030865 89.692324 
L 547.284298 87.810712 
L 541.47228 86.142202 
L 535.602744 84.688924 
L 529.683686 83.452713 
L 523.723155 82.435105 
L 517.72924 81.637337 
L 511.71006 81.060349 
L 505.673753 80.704778 
L 499.628464 80.570965 
L 493.582336 80.658949 
L 487.543495 80.968472 
L 481.520044 81.498979 
L 475.52005 82.249619 
L 469.551533 83.21925 
L 463.622455 84.406438 
L 457.740713 85.809459 
L 451.914122 87.426307 
L 446.150413 89.254694 
L 440.457215 91.292055 
L 434.842052 93.535552 
L 429.31233 95.982078 
L 423.825439 98.653687 
L 418.440332 101.524938 
L 413.164199 104.591839 
L 408.004072 107.850142 
L 402.966812 111.295348 
L 398.059102 114.922717 
L 393.287439 118.727274 
L 388.658126 122.703816 
L 384.177266 126.846918 
L 379.850749 131.150944 
L 375.68425 135.610056 
L 371.68322 140.218215 
L 367.852879 144.969201 
L 364.198213 149.856611 
L 360.723962 154.873875 
L 357.434622 160.014263 
L 354.334432 165.270894 
L 351.427376 170.636745 
L 348.717175 176.104663 
L 346.207281 181.667374 
L 343.900881 187.317491 
L 341.800882 193.047527 
L 339.90992 198.849902 
L 338.230349 204.716956 
L 336.764242 210.640958 
L 335.513388 216.614118 
L 334.479293 222.628592 
L 333.663175 228.676502 
L 333.065968 234.749935 
L 332.688317 240.840962 
L 332.530152 246.997636 
L 332.596027 253.155988 
L 332.885719 259.307875 
L 333.39871 265.445177 
L 334.134186 271.559806 
L 335.091045 277.643722 
L 336.267893 283.688938 
L 337.66305 289.687532 
L 339.274553 295.631659 
L 341.100158 301.513559 
L 343.137347 307.325567 
L 345.383326 313.060123 
L 347.835037 318.709785 
L 350.489156 324.26723 
L 353.342105 329.725272 
L 356.390049 335.076867 
L 359.628911 340.315121 
L 363.054369 345.4333 
L 366.661871 350.424837 
L 370.446634 355.283342 
L 374.403656 360.002609 
L 378.52772 364.576621 
L 382.813404 368.99956 
L 387.255087 373.265815 
L 391.846956 377.369983 
L 396.583017 381.306884 
L 401.4571 385.071558 
L 406.462869 388.659275 
L 411.593832 392.065543 
L 416.843345 395.286108 
L 422.253858 398.343633 
L 427.771078 401.20412 
L 433.387775 403.863972 
L 439.096603 406.319855 
L 444.890111 408.568708 
L 450.760751 410.607743 
L 456.700886 412.434448 
L 462.702808 414.046589 
L 468.758737 415.442213 
L 474.860842 416.61965 
L 481.001244 417.577513 
L 487.172028 418.314699 
L 493.365257 418.830392 
L 499.572976 419.12406 
L 505.787226 419.195457 
L 512.000055 419.044621 
L 518.203526 418.671874 
L 524.389727 418.077822 
L 530.550784 417.26335 
L 536.678865 416.229624 
L 542.766197 414.978085 
L 548.805071 413.510449 
L 554.787853 411.828704 
L 560.706994 409.935105 
L 566.555037 407.832172 
L 572.324628 405.522683 
L 578.008528 403.009675 
L 583.599614 400.296435 
L 589.090895 397.386498 
L 594.475517 394.283638 
L 599.746773 390.991867 
L 604.943951 387.483281 
L 610.012472 383.791273 
L 614.945946 379.920658 
L 619.738163 375.876469 
L 624.383109 371.663953 
L 628.874962 367.288561 
L 633.208109 362.755943 
L 637.377145 358.071935 
L 641.376882 353.242558 
L 645.202358 348.274007 
L 648.848838 343.172639 
L 652.311819 337.94497 
L 655.58704 332.597665 
L 658.670484 327.137525 
L 661.55838 321.571486 
L 664.247209 315.9066 
L 666.733711 310.150036 
L 669.014883 304.309062 
L 671.087983 298.391041 
L 672.950536 292.403421 
L 674.600334 286.353721 
L 676.035438 280.249529 
L 677.25418 274.098484 
L 678.255163 267.908273 
L 679.037266 261.686618 
L 679.59964 255.441268 
L 679.94171 249.179986 
L 680.039991 245.485983 
L 680.039991 245.485983 
" style="fill:none;stroke:#1f77b4;stroke-linecap:square;stroke-width:1.5;"/>
   </g>
   <g id="patch_3">
    <path d="M 688.95 245.43 
C 688.95 220.85894 684.110037 196.526802 674.707099 173.826103 
C 665.304162 151.125403 651.521113 130.497613 634.14675 113.12325 
C 616.772387 95.748887 596.144597 81.965838 573.443897 72.562901 
C 550.743198 63.159963 526.41106 58.32 501.84 58.32 
C 477.26894 58.32 452.936802 63.159963 430.236103 72.562901 
C 407.535403 81.965838 386.907613 95.748887 369.53325 113.12325 
C 352.158887 130.497613 338.375838 151.125403 328.972901 173.826103 
C 319.569963 196.526802 314.73 220.85894 314.73 245.43 
C 314.73 270.00106 319.569963 294.333198 328.972901 317.033897 
C 338.375838 339.734597 352.158887 360.362387 369.53325 377.73675 
C 386.907613 395.111113 407.535403 408.894162 430.236103 418.297099 
C 452.936802 427.700037 477.26894 432.54 501.84 432.54 
C 526.41106 432.54 550.743198 427.700037 573.443897 418.297099 
C 596.144597 408.894162 616.772387 395.111113 634.14675 377.73675 
C 651.521113 360.362387 665.304162 339.734597 674.707099 317.033897 
C 684.110037 294.333198 688.95 270.00106 688.95 245.43 
" style="fill:none;stroke:#000000;stroke-linecap:square;stroke-linejoin:miter;stroke-width:0.8;"/>
   </g>
  </g>
 </g>
 <defs>
  <clipPath id="padf773c143">
   <path d="M 688.95 245.43 
C 688.95 220.85894 684.110037 196.526802 674.707099 173.826103 
C 665.304162 151.125403 651.521113 130.497613 634.14675 113.12325 
C 616.772387 95.748887 596.144597 81.965838 573.443897 72.562901 
C 550.743198 63.159963 526.41106 58.32 501.84 58.32 
C 477.26894 58.32 452.936802 63.159963 430.236103 72.562901 
C 407.535403 81.965838 386.907613 95.748887 369.53325 113.12325 
C 352.158887 130.497613 338.375838 151.125403 328.972901 173.826103 
C 319.569963 196.526802 314.73 220.85894 314.73 245.43 
C 314.73 270.00106 319.569963 294.333198 328.972901 317.033897 
C 338.375838 339.734597 352.158887 360.362387 369.53325 377.73675 
C 386.907613 395.111113 407.535403 408.894162 430.236103 418.297099 
C 452.936802 427.700037 477.26894 432.54 501.84 432.54 
C 526.41106 432.54 550.743198 427.700037 573.443897 418.297099 
C 596.144597 408.894162 616.772387 395.111113 634.14675 377.73675 
C 651.521113 360.362387 665.304162 339.734597 674.707099 317.033897 
C 684.110037 294.333198 688.95 270.00106 688.95 245.43 
M 501.84 245.43 
C 501.84 245.43 501.84 245.43 501.84 245.43 
C 501.84 245.43 501.84 245.43 501.84 245.43 
C 501.84 245.43 501.84 245.43 501.84 245.43 
C 501.84 245.43 501.84 245.43 501.84 245.43 
C 501.84 245.43 501.84 245.43 501.84 245.43 
C 501.84 245.43 501.84 245.43 501.84 245.43 
C 501.84 245.43 501.84 245.43 501.84 245.43 
C 501.84 245.43 501.84 245.43 501.84 245.43 
C 501.84 245.43 501.84 245.43 501.84 245.43 
C 501.84 245.43 501.84 245.43 501.84 245.43 
C 501.84 245.43 501.84 245.43 501.84 245.43 
C 501.84 245.43 501.84 245.43 501.84 245.43 
C 501.84 245.43 501.84 245.43 501.84 245.43 
C 501.84 245.43 501.84 245.43 501.84 245.43 
C 501.84 245.43 501.84 245.43 501.84 245.43 
C 501.84 245.43 501.84 245.43 501.84 245.43 
M 688.95 245.43 
z
"/>
  </clipPath>
 </defs>
</svg>
